<?xml version="1.0" encoding="utf-8"?>
<!-- Generator: Adobe Illustrator 19.0.0, SVG Export Plug-In . SVG Version: 6.00 Build 0)  -->
<svg version="1.1" id="Layer_1" xmlns="http://www.w3.org/2000/svg" xmlns:xlink="http://www.w3.org/1999/xlink" x="0px" y="0px"
	 width="563.9px" height="483.1px" viewBox="0 0 563.9 483.1" style="enable-background:new 0 0 563.9 483.1;" xml:space="preserve"
	>
<style type="text/css">
	.st0{fill:#FFFFFF;}
	.st1{opacity:0.5;}
	.st2{clip-path:url(#SVGID_2_);fill:#D3D3D3;}
	.st3{fill:#E7B024;}
	.st4{fill:#EDECED;}
	.st5{fill:#C7C5C5;}
	.st6{fill:#D0972B;}
	.st7{fill:#E6252E;}
	.st8{fill:#AA2532;}
	.st9{fill:#3451A1;}
	.st10{fill:#272A64;}
	.st11{fill:#11A04A;}
	.st12{fill:#078543;}
</style>
<g>
	<path class="st0" d="M92,393.9c-0.2-3-1.9-3.2-3.4-3.2h-1.5c0.4,1.8,1.1,4.2,5,19.7c-4.3,1.2-10.2,1.7-14.4,1.7
		c-8.9,0-12.9-4.3-12.9-13V391l5.3-5.6v13.2c0,5.7,2.2,8.4,7.8,8.4c2.8,0,5.9-0.1,8.2-0.5c-0.8-2.8-2.6-9-3.9-14.3
		c-0.2-0.8-0.2-1.5-0.2-2c0-2.5,1.3-4.3,4.2-4.3h3.3c2.8,0,3.8,0.4,3.8,1.5c0,0.2-0.1,0.8-0.2,1.1L92,393.9z M73.4,418.7h4.7v6.1
		h-4.7V418.7z M80.7,418.7h4.6v6.1h-4.6V418.7z"/>
	<path class="st0" d="M95.9,418.2c0.6,0,3.1,0.2,3.6,0.2c5.5,0,7.8-2.7,7.8-8.4v-17.4l5.3-0.8v13.7c2.1,1.2,4.4,1.6,6.3,1.6h1.3
		l0.5,5.1h-1.6c-2.2,0-4.3-0.4-6.5-1.1c-0.2,8.3-4.3,12.3-12.9,12.3h-1.5L95.9,418.2z"/>
	<path class="st0" d="M119.5,407h5.9c3.7,0,5-2.3,5-6.9v-10l5.2-0.8v9.7c6.6-11.3,14.4-13.9,18.2-13.9c6.7,0,11.9,4.2,11.9,13.5
		c0,3.5-0.8,6.3-1.9,8.4h7.2l0.5,5.1h-29.3c-2.6,0-5.7-0.5-8.4-1c-0.1,0-0.2,0-0.2-0.1c-0.6-0.2-1.2-0.2-1.8-0.4h-0.1
		c-0.1,0-0.2,0-0.2,0.1c-1.5,1-3.6,1.4-5.7,1.4h-5.7L119.5,407z M153.6,407c4.5,0,6.6-3.1,6.6-8.4c0-5.7-2.3-8.3-6.3-8.3
		c-4,0-12.1,5.3-16.7,16.4c1.8,0.3,3.9,0.4,5.4,0.4H153.6z"/>
	<path class="st0" d="M203.8,412.2c-2.2,0-4.5-0.4-6.7-1.2c-1.7,3.5-4.9,5-9.6,5c-2.8,0-5.9-1.1-7.9-3.2c-0.5-0.5-1.2-1.4-1.6-2.1
		c-1.6,1.2-3.8,1.5-7,1.5l-0.5-5.1c4,0,5.9-1.5,6.2-4.7c0.8-6.3,5.2-9.4,10.9-9.4c7.5,0,10.9,4.9,10.9,11.4v1.7
		c1.8,0.9,3.6,1.1,5.2,1.1h0.8c4.7,0,6.3-2.3,6.3-6.9v-25.3l5.3-0.8v27c0,7.3-3.5,11-11,11H203.8z M193.1,404.5
		c0-4.5-2.2-6.6-5.6-6.6c-2.8,0-5,1.7-5.5,4.7c0,0.4-0.1,0.7-0.1,0.9c-0.1,0.4-0.1,0.7-0.1,0.9c0,4.4,2.2,6.3,5.3,6.3h0.3
		C191.6,410.8,193.1,409,193.1,404.5"/>
	<polygon class="st0" points="222.7,412.2 222.7,374.9 227.9,374.1 227.9,412.2 	"/>
	<path class="st0" d="M262.7,408.1c-1.3,0.2-2.5,0.4-3.7,0.4c-6,0-10.3-3-10.3-10.9c0-8.3,4.9-11.5,10.6-11.5c3.1,0,5.2,0.4,8.6,1.4
		V407h6.2l0.4,5.1h-11.8V408.1z M253.1,374h4.7v6.2h-4.7V374z M262.7,391.7c-0.9-0.2-1.6-0.2-2.5-0.2h-0.9c-2.9,0-5.1,1.5-5.1,6.1
		c0,4.4,2,5.5,4.8,5.5c1.2,0,2.4-0.2,3.7-0.5V391.7z M260.4,374h4.6v6.2h-4.6V374z"/>
	<path class="st0" d="M273.5,407h15c3,0,4.3-0.9,4.9-3.7c-1.4,0.8-2.6,1-3.9,1.2h-1.2c-5.9,0-10.3-3.4-10.3-11
		c0-7.4,4.5-10.9,10.4-10.9c4.7,0,7.6,2,9.3,5.1c0.8,1.6,1.2,3.5,1.2,5.7v8.4c0,7.3-3.2,10.2-10,10.2H274L273.5,407z M293.5,393.6
		c0-4.2-2.2-6.1-5.3-6.1c-3.1,0-5.2,1.9-5.2,6.1c0,4.3,2.1,6.2,5.2,6.2C291.3,399.8,293.5,397.9,293.5,393.6 M285.6,371.8h5.3v6.4
		h-5.3V371.8z"/>
	<path class="st0" d="M302.8,418.2c0.6,0,3,0.2,3.6,0.2c5.5,0,7.8-2.7,7.8-8.4v-17.4l5.3-0.8v13.7c2.1,1.2,4.4,1.6,6.3,1.6h1.4
		l0.5,5.1H326c-2.2,0-4.3-0.4-6.5-1.1c-0.2,8.3-4.3,12.3-12.9,12.3H305L302.8,418.2z"/>
	<path class="st0" d="M326.6,407h11.3c-2.8-4.8-5.6-10.2-8.2-14.9c4-4,8.8-5.6,13.3-5.6c4.9,0,9.7,2.2,12.3,5.9l-7.3,14.6h10.4
		l0.5,5.1h-31.8L326.6,407z M342.9,406.3l6.1-12.9c-1.7-0.9-3.8-1.5-6.1-1.5c-2.3,0-4.8,0.5-6.5,1.7L342.9,406.3z"/>
	<path class="st0" d="M391.2,412.2c-2.2,0-4.5-0.4-6.7-1.2c-1.7,3.5-4.9,5-9.6,5c-2.8,0-5.9-1.1-7.9-3.2c-0.5-0.5-1.2-1.4-1.6-2.1
		c-1.6,1.2-3.8,1.5-7,1.5l-0.5-5.1c4,0,5.9-1.5,6.2-4.7c0.8-6.3,5.2-9.4,10.9-9.4c7.5,0,10.9,4.9,10.9,11.4v1.7
		c1.8,0.9,3.6,1.1,5.2,1.1h0.8c4.7,0,6.3-2.3,6.3-6.9v-25.3l5.3-0.8v27c0,7.3-3.5,11-11,11H391.2z M380.5,404.5
		c0-4.5-2.2-6.6-5.6-6.6c-2.8,0-5,1.7-5.5,4.7c0,0.4-0.1,0.7-0.1,0.9c-0.1,0.4-0.1,0.7-0.1,0.9c0,4.4,2.2,6.3,5.3,6.3h0.3
		C379,410.8,380.5,409,380.5,404.5"/>
	<polygon class="st0" points="410.1,412.2 410.1,374.9 415.4,374.1 415.4,412.2 	"/>
	<path class="st0" d="M447.5,412.2c-8.7,0-12.8-4.4-12.8-13v-9.9l5.3-5.1v14.4c0,5.6,2.1,8.4,7.5,8.4h9.9c3.7,0,5-2.3,5-6.9v-25.3
		l5.3-0.8v27c0,1.7-0.2,3-0.6,4.4c2.1,1.1,4.1,1.5,6,1.5h1.3l0.5,5.1h-1.6c-2.8,0-5.9-0.6-8.9-2.2c-1.5,1.5-3.8,2.2-6.7,2.2H447.5z
		 M445.7,389h2.1c-0.5-0.8-0.7-2-0.7-3.1c0-4.1,2.8-5.7,5.2-5.7c1.9,0,3.5,0.8,4.9,2.6l-1.8,2.1c-1.2-1.2-2.2-1.9-3.1-1.9
		c-1.2,0-2.2,0.9-2.2,2.9c0,2.1,0.8,3.1,2.2,3.1h5.3l-1.5,2.9h-11.7L445.7,389z"/>
	<path class="st0" d="M491.1,412.2c-2.9,0-5.9-0.5-8.9-2.2c-1.9,1.5-4.6,2.2-7.7,2.2l-0.3-5.1c4.6,0,6.2-2.3,6.2-6.9v-13.8l5.3-0.8
		v15.5c0,1.7-0.3,3.3-0.6,4.5c2.1,1.1,4.1,1.4,5.9,1.4h1.4l0.5,5.1H491.1z M480.3,373.8h5.3v6.4h-5.3V373.8z"/>
	<path class="st0" d="M491.7,407c4.6,0,6.3-2.3,6.3-6.9v-13.8l5.3-0.8v15.5c0,7.3-3.5,11-11.1,11L491.7,407z M498,418.7h5.3v6.4H498
		V418.7z"/>
</g>
<g>
	<polygon class="st0" points="83.3,330.1 70.4,330.1 70.4,337.9 83,337.9 83,342.5 70.4,342.5 70.4,353.3 83.3,353.3 83.3,358 
		65.5,358 65.5,325.4 83.3,325.4 	"/>
	<path class="st0" d="M105.3,357.5c0,1,0,1.8-0.1,2.6c-0.1,0.7-0.1,1.4-0.3,1.9c-0.3,1.5-1,2.9-2,4c-1.8,2.1-4.4,3.2-7.6,3.2
		c-2.7,0-5-0.7-6.7-2.2c-1.8-1.5-2.9-3.6-3.1-6.3h4.7c0.2,1,0.5,1.8,0.9,2.3c1,1.3,2.4,1.9,4.3,1.9c3.4,0,5.2-2.1,5.2-6.4v-2.9
		c-1.9,1.9-4,2.9-6.5,2.9c-2.8,0-5-1-6.8-3c-1.8-2.1-2.7-4.6-2.7-7.7c0-3,0.8-5.5,2.5-7.6c1.8-2.2,4.1-3.3,7.1-3.3
		c2.6,0,4.7,1,6.4,2.9v-2.3h4.7V357.5z M100.8,347.8c0-2-0.5-3.6-1.6-4.8c-1.1-1.2-2.4-1.8-4.1-1.8c-1.8,0-3.2,0.7-4.2,2
		c-0.9,1.2-1.4,2.7-1.4,4.6c0,1.9,0.5,3.4,1.4,4.6c1,1.3,2.4,2,4.2,2c1.8,0,3.2-0.7,4.3-2C100.3,351.1,100.8,349.6,100.8,347.8"/>
	<polygon class="st0" points="114.5,354.1 105.3,337.5 110.8,337.5 117,349.2 122.8,337.5 128.1,337.5 111.9,369.1 106.5,369.1 	"/>
	<path class="st0" d="M132.8,369.1h-4.7v-31.7h4.7v2.2c1.9-1.9,4-2.8,6.3-2.8c2.8,0,5.1,1,6.9,3.1c1.8,2.1,2.8,4.7,2.8,7.8
		c0,3.1-0.9,5.6-2.7,7.7c-1.8,2-4.1,3.1-6.9,3.1c-2.4,0-4.5-1-6.4-2.9V369.1z M144,347.8c0-2-0.5-3.6-1.6-4.8
		c-1.1-1.3-2.4-1.9-4.1-1.9c-1.7,0-3.1,0.6-4.2,1.8c-1.1,1.2-1.6,2.8-1.6,4.8c0,1.9,0.5,3.5,1.6,4.8c1.1,1.2,2.5,1.8,4.2,1.8
		c1.6,0,3-0.6,4-1.9C143.5,351.2,144,349.7,144,347.8"/>
	<polygon class="st0" points="155.8,341.9 155.8,358 151.1,358 151.1,341.9 149.1,341.9 149.1,337.5 151.1,337.5 151.1,329.9 
		155.8,329.9 155.8,337.5 159.5,337.5 159.5,341.9 	"/>
	<path class="st0" d="M158.8,328.9c0-0.8,0.3-1.5,0.9-2.1c0.6-0.6,1.3-0.9,2.2-0.9c0.9,0,1.6,0.3,2.2,0.9c0.6,0.6,0.9,1.3,0.9,2.2
		c0,0.9-0.3,1.6-0.9,2.2c-0.6,0.6-1.3,0.9-2.2,0.9c-0.9,0-1.6-0.3-2.2-0.9C159.1,330.5,158.8,329.8,158.8,328.9 M164.2,358h-4.7
		v-20.5h4.7V358z"/>
	<path class="st0" d="M181.9,337.5h4.7V358h-4.7v-2.1c-1.9,1.8-4,2.7-6.3,2.7c-2.8,0-5.1-1-7-3.1c-1.8-2.1-2.7-4.7-2.7-7.8
		c0-3.1,0.9-5.6,2.7-7.7c1.8-2,4.1-3.1,6.9-3.1c2.4,0,4.5,1,6.4,2.9V337.5z M170.8,347.6c0,2,0.5,3.6,1.6,4.8
		c1.1,1.3,2.4,1.9,4.1,1.9c1.7,0,3.1-0.6,4.2-1.8c1.1-1.2,1.6-2.8,1.6-4.8c0-1.9-0.5-3.5-1.6-4.8c-1.1-1.2-2.5-1.8-4.2-1.8
		c-1.6,0-3,0.6-4.1,1.9C171.3,344.3,170.8,345.8,170.8,347.6"/>
	<path class="st0" d="M189.4,337.5h4.7v1.9c1.6-1.6,3.5-2.5,5.6-2.5c2.4,0,4.2,0.8,5.5,2.3c1.1,1.3,1.7,3.4,1.7,6.3V358h-4.7v-11.4
		c0-2-0.3-3.4-0.8-4.2c-0.5-0.8-1.5-1.2-3-1.2c-1.6,0-2.7,0.5-3.3,1.6c-0.6,1-1,2.8-1,5.4v9.9h-4.7V337.5z"/>
	<polygon class="st0" points="225.4,338.4 238,325.4 244.5,325.4 229.9,340.2 244.6,358 238.1,358 226.4,343.5 225.4,344.5 
		225.4,358 220.6,358 220.6,325.4 225.4,325.4 	"/>
	<path class="st0" d="M244.8,337.5h4.7v1.9c1.6-1.6,3.5-2.5,5.6-2.5c2.4,0,4.2,0.8,5.5,2.3c1.1,1.3,1.7,3.4,1.7,6.3V358h-4.7v-11.4
		c0-2-0.3-3.4-0.8-4.2c-0.5-0.8-1.5-1.2-3-1.2c-1.6,0-2.7,0.5-3.3,1.6c-0.6,1-1,2.8-1,5.4v9.9h-4.7V337.5z"/>
	<path class="st0" d="M264.2,347.6c0-3,1.1-5.5,3.2-7.6c2.1-2.1,4.7-3.1,7.7-3.1c3,0,5.6,1,7.7,3.1c2.1,2.1,3.1,4.7,3.1,7.7
		c0,3.1-1.1,5.7-3.2,7.7c-2.1,2.1-4.7,3.1-7.8,3.1c-3.1,0-5.6-1.1-7.7-3.2C265.2,353.3,264.2,350.7,264.2,347.6 M269,347.6
		c0,2.1,0.5,3.7,1.6,4.9c1.1,1.2,2.6,1.8,4.4,1.8c1.8,0,3.3-0.6,4.4-1.8c1.1-1.2,1.7-2.8,1.7-4.8c0-2-0.6-3.6-1.7-4.8
		c-1.1-1.2-2.6-1.8-4.4-1.8c-1.8,0-3.3,0.6-4.4,1.8C269.5,344.2,269,345.7,269,347.6"/>
	<polygon class="st0" points="289.4,337.5 294.7,349.2 300.5,335.6 306.3,349.2 311.5,337.5 316.8,337.5 306.1,359.5 300.5,346.3 
		294.7,359.5 284.1,337.5 	"/>
	<rect x="317.1" y="322.4" class="st0" width="4.7" height="35.6"/>
	<path class="st0" d="M343.1,348.8h-14.6c0.1,1.7,0.7,3,1.6,4c1,1,2.2,1.5,3.7,1.5c1.2,0,2.1-0.3,2.9-0.8c0.8-0.6,1.6-1.6,2.6-3.1
		l4,2.2c-0.6,1.1-1.3,2-1.9,2.7c-0.7,0.8-1.4,1.4-2.2,1.9c-0.8,0.5-1.6,0.8-2.5,1.1c-0.9,0.2-1.9,0.3-2.9,0.3c-3,0-5.5-1-7.3-2.9
		c-1.8-2-2.8-4.6-2.8-7.9c0-3.2,0.9-5.9,2.7-7.9c1.8-2,4.2-3,7.2-3c3,0,5.4,1,7.1,2.9c1.7,1.9,2.6,4.6,2.6,7.9L343.1,348.8z
		 M338.3,344.9c-0.7-2.5-2.2-3.8-4.7-3.8c-0.6,0-1.1,0.1-1.6,0.3c-0.5,0.2-1,0.4-1.4,0.8c-0.4,0.3-0.8,0.7-1.1,1.2
		c-0.3,0.5-0.5,1-0.7,1.6H338.3z"/>
	<path class="st0" d="M360.1,322.4h4.7V358h-4.7v-2.1c-1.9,1.8-4,2.7-6.3,2.7c-2.8,0-5.1-1-6.9-3.1c-1.8-2.1-2.7-4.7-2.7-7.8
		c0-3.1,0.9-5.6,2.7-7.7c1.8-2.1,4.1-3.1,6.8-3.1c2.4,0,4.5,1,6.4,2.9V322.4z M348.9,347.6c0,2,0.5,3.6,1.6,4.8
		c1.1,1.3,2.4,1.9,4.1,1.9c1.7,0,3.1-0.6,4.2-1.8c1.1-1.2,1.6-2.8,1.6-4.8c0-1.9-0.5-3.5-1.6-4.8c-1.1-1.2-2.5-1.8-4.2-1.8
		c-1.6,0-3,0.6-4.1,1.9C349.5,344.3,348.9,345.8,348.9,347.6"/>
	<path class="st0" d="M387.2,357.5c0,1,0,1.8-0.1,2.6c-0.1,0.7-0.1,1.4-0.3,1.9c-0.3,1.5-1,2.9-2,4c-1.8,2.1-4.4,3.2-7.6,3.2
		c-2.7,0-5-0.7-6.7-2.2c-1.8-1.5-2.9-3.6-3.1-6.3h4.7c0.2,1,0.5,1.8,0.9,2.3c1,1.3,2.4,1.9,4.3,1.9c3.4,0,5.2-2.1,5.2-6.4v-2.9
		c-1.9,1.9-4,2.9-6.5,2.9c-2.8,0-5-1-6.8-3c-1.8-2.1-2.7-4.6-2.7-7.7c0-3,0.8-5.5,2.5-7.6c1.8-2.2,4.1-3.3,7.1-3.3
		c2.6,0,4.7,1,6.4,2.9v-2.3h4.7V357.5z M382.7,347.8c0-2-0.5-3.6-1.6-4.8c-1.1-1.2-2.4-1.8-4.1-1.8c-1.8,0-3.2,0.7-4.2,2
		c-0.9,1.2-1.4,2.7-1.4,4.6c0,1.9,0.5,3.4,1.4,4.6c1,1.3,2.4,2,4.2,2c1.8,0,3.2-0.7,4.3-2C382.2,351.1,382.7,349.6,382.7,347.8"/>
	<path class="st0" d="M408.5,348.8h-14.6c0.1,1.7,0.7,3,1.6,4c1,1,2.2,1.5,3.7,1.5c1.2,0,2.1-0.3,2.9-0.8c0.8-0.6,1.6-1.6,2.6-3.1
		l4,2.2c-0.6,1.1-1.3,2-1.9,2.7c-0.7,0.8-1.4,1.4-2.2,1.9c-0.8,0.5-1.6,0.8-2.5,1.1c-0.9,0.2-1.9,0.3-2.9,0.3c-3,0-5.5-1-7.3-2.9
		c-1.8-2-2.8-4.6-2.8-7.9c0-3.2,0.9-5.9,2.7-7.9c1.8-2,4.2-3,7.2-3c3,0,5.4,1,7.1,2.9c1.7,1.9,2.6,4.6,2.6,7.9L408.5,348.8z
		 M403.7,344.9c-0.7-2.5-2.2-3.8-4.7-3.8c-0.6,0-1.1,0.1-1.6,0.3c-0.5,0.2-1,0.4-1.4,0.8c-0.4,0.3-0.8,0.7-1.1,1.2
		c-0.3,0.5-0.5,1-0.7,1.6H403.7z"/>
	<path class="st0" d="M421.4,358v-32.5h4.9c2.2,0,3.9,0.2,5.2,0.5c1.3,0.3,2.4,0.9,3.3,1.7c0.9,0.8,1.6,1.9,2.2,3.1
		c0.5,1.3,0.8,2.5,0.8,3.8c0,2.3-0.9,4.3-2.7,5.9c1.7,0.6,3.1,1.6,4.1,3.1c1,1.5,1.5,3.2,1.5,5.1c0,2.5-0.9,4.7-2.7,6.4
		c-1.1,1.1-2.3,1.8-3.6,2.3c-1.5,0.4-3.3,0.6-5.5,0.6H421.4z M426.2,339.4h1.5c1.8,0,3.1-0.4,4-1.2c0.8-0.8,1.3-2,1.3-3.6
		c0-1.5-0.4-2.7-1.3-3.5c-0.9-0.8-2.1-1.2-3.8-1.2h-1.7V339.4z M426.2,353.3h3c2.2,0,3.8-0.4,4.9-1.3c1.1-0.9,1.6-2.1,1.6-3.6
		c0-1.4-0.5-2.6-1.6-3.5c-1-0.9-2.8-1.4-5.5-1.4h-2.5V353.3z"/>
	<path class="st0" d="M457.6,337.5h4.7V358h-4.7v-2.1c-1.9,1.8-4,2.7-6.3,2.7c-2.8,0-5.1-1-7-3.1c-1.8-2.1-2.7-4.7-2.7-7.8
		c0-3.1,0.9-5.6,2.7-7.7c1.8-2,4.1-3.1,6.9-3.1c2.4,0,4.5,1,6.4,2.9V337.5z M446.4,347.6c0,2,0.5,3.6,1.6,4.8
		c1.1,1.3,2.4,1.9,4.1,1.9c1.7,0,3.2-0.6,4.2-1.8c1.1-1.2,1.6-2.8,1.6-4.8c0-1.9-0.5-3.5-1.6-4.8c-1.1-1.2-2.5-1.8-4.2-1.8
		c-1.6,0-3,0.6-4.1,1.9C447,344.3,446.4,345.8,446.4,347.6"/>
	<path class="st0" d="M465,337.5h4.7v1.9c1.6-1.6,3.5-2.5,5.6-2.5c2.4,0,4.2,0.8,5.5,2.3c1.1,1.3,1.7,3.4,1.7,6.3V358h-4.7v-11.4
		c0-2-0.3-3.4-0.8-4.2c-0.5-0.8-1.5-1.2-3-1.2c-1.6,0-2.7,0.5-3.3,1.6c-0.6,1-1,2.8-1,5.4v9.9H465V337.5z"/>
	<polygon class="st0" points="490,322.4 490,344.1 496.6,337.4 503,337.4 494.1,346.1 503.6,358 497.5,358 490.8,349.3 490,350.1 
		490,358 485.3,358 485.3,322.4 	"/>
</g>
<g>
	<g class="st1">
		<g>
			<defs>
				<rect id="SVGID_1_" x="64.7" y="227.6" width="438.1" height="69.3"/>
			</defs>
			<clipPath id="SVGID_2_">
				<use xlink:href="#SVGID_1_"  style="overflow:visible;"/>
			</clipPath>
			<path class="st2" d="M502.7,262.2c0,19.1-98.1,34.6-219,34.6c-121,0-219-15.5-219-34.6c0-19.1,98.1-34.6,219-34.6
				C404.7,227.6,502.7,243.1,502.7,262.2"/>
		</g>
	</g>
	<g>
		<path class="st3" d="M425.6,248.9c-0.1-0.5-1.1-0.7-2.6-0.7c-29.7-0.1-253.8,0.1-253.8,0.1l-30.4,24.6l2,0l-2,1.6
			c0,0,4.9,0,13.2-0.1l-13.3,6.1l261-0.1c3.9-4.7,8-8.8,11.9-13.6c2.9-3.5,5.8-7.1,8.7-10.6c1.1-1.4,2.6-3.2,3.7-4.6
			C424.8,250.5,425.7,249.5,425.6,248.9z"/>
		<polygon class="st4" points="398.9,229.6 399.6,272.5 417.8,251 417.8,213 		"/>
		<g>
			<polyline class="st5" points="395.3,260 417.6,235.6 417.6,234.6 395.4,258.7 			"/>
		</g>
		<g>
			<polyline class="st5" points="395.1,253.8 417.7,229.8 417.8,228.8 395.2,252.5 			"/>
		</g>
		<g>
			<polyline class="st5" points="394.6,247.3 417.5,223.6 417.6,222.7 394.7,246 			"/>
		</g>
		<g>
			<polyline class="st5" points="395.5,265.9 417.7,241.5 417.7,240.5 395.5,264.6 			"/>
		</g>
		<g>
			<polyline class="st5" points="395.5,270.9 417.7,246.5 417.7,245.5 395.5,269.6 			"/>
		</g>
		<path class="st3" d="M165.5,232.8l-24-1v0.1c-0.1,0,3.9-0.4-1.6,0c-6.4,0.9-15.9,11.7-15.6,23.4c0.5,18.5,14.1,25.3,14.4,25.2
			l13.8,0l2.9-1c1.4,0,10.8-1.6,10.8-2.6c4.2-3.6-0.2-12.4-0.2-22.6C166.1,244,169.6,236.4,165.5,232.8z"/>
		<rect x="144" y="231.3" class="st4" width="255.6" height="41.2"/>
		<rect x="144.4" y="241" class="st5" width="255.2" height="1.1"/>
		<rect x="144.4" y="247.8" class="st5" width="255.3" height="1.1"/>
		<rect x="144.4" y="254.2" class="st5" width="255.3" height="1.1"/>
		<rect x="144.4" y="260.2" class="st5" width="255.3" height="1.2"/>
		<rect x="144.4" y="265.2" class="st5" width="255.3" height="1.1"/>
		<path class="st6" d="M418.2,207.3l-250,0.3c0,0-32.8,27.1-32.8,27.1c2.2-2,16.3-1.4,19-1.4c28.9,0,57.9,0,86.8,0
			c34.8,0,69.6,0,104.4,0c12.5,0,25.1,0,37.6,0c3.8,0,7.6,0,11.5,0c1.3,0,2.3-0.1,3.3-0.3l0.4,1.1l1.1,0.4l21.3-25.3
			C422.7,206.8,418.2,207.3,418.2,207.3z"/>
		<path class="st3" d="M402.2,231.1H141.1c-0.8,0-4.2,1.7-4.2,1.7c0,0.9-6.3,4.7,3.2,1.5h259.3L402.2,231.1z"/>
	</g>
	<path class="st4" d="M373.5,218c0,0,1.1-0.2,1.5-1.3c0.4-1.2,1.2-2,1.2-2l-2.7,2V218z"/>
	<g>
		<path class="st7" d="M397.5,202.8c-0.1-0.4-0.8-0.5-2-0.5c-23-0.1-196.1,0.1-196.1,0.1L176,219.6l1.6,0l-1.6,1.1c0,0,3.8,0,10.2,0
			l-10.3,4.3l201.6-0.1c3-3.3,6.2-6.2,9.2-9.5c2.2-2.5,4.5-5,6.7-7.5c0.8-1,2-2.2,2.8-3.2C396.9,203.9,397.6,203.2,397.5,202.8z"/>
		<polygon class="st4" points="376.8,189.2 377.5,219.3 391.4,204.2 391.4,177.6 		"/>
		<g>
			<polyline class="st5" points="374.1,210.6 391.3,193.4 391.3,192.8 374.2,209.7 			"/>
		</g>
		<g>
			<polyline class="st5" points="373.9,206.2 391.4,189.4 391.5,188.7 374,205.3 			"/>
		</g>
		<g>
			<polyline class="st5" points="373.5,201.7 391.2,185.1 391.3,184.4 373.6,200.8 			"/>
		</g>
		<g>
			<polyline class="st5" points="374.2,214.7 391.4,197.6 391.4,196.9 374.3,213.8 			"/>
		</g>
		<g>
			<polyline class="st5" points="374.2,218.2 391.4,201.1 391.4,200.4 374.3,217.3 			"/>
		</g>
		<path class="st7" d="M196.5,191.5l-18.6-0.7v0.1c-0.1,0,3-0.3-1.2,0c-3.8,2.5-6.9,8.7-6.9,16.3c0,9.8,5.8,17.8,6,17.8h10.7
			l2.2-0.7c1.1,0,8.3-1.1,8.4-1.8c3.2-2.6-0.2-8.7-0.2-15.9C197,199.4,199.8,194,196.5,191.5z"/>
		<rect x="181.6" y="190.4" class="st4" width="195.9" height="28.9"/>
		<rect x="182.5" y="197.3" class="st5" width="195" height="0.8"/>
		<rect x="182.5" y="202" class="st5" width="195.1" height="0.8"/>
		<rect x="182.5" y="206.5" class="st5" width="195" height="0.8"/>
		<rect x="182.5" y="210.7" class="st5" width="195" height="0.8"/>
		<rect x="182.5" y="214.2" class="st5" width="195" height="0.8"/>
		<path class="st8" d="M391.7,173.4l-193.1,0.2c0,0-22.8,18-22.8,18c1.7-1.4,10,0,12.1,0c22.4,0,44.7,0,67.1,0c26.9,0,53.8,0,80.7,0
			c9.7,0,19.4,0,29.1,0c3,0,5.9,0,8.9,0c1,0,1.8-0.1,2.5-0.2l0.3,0.8l0.9,0.3c2.5-2.5,11.9-11.8,14.4-14.3
			C392.5,177.4,397.8,173.4,391.7,173.4z"/>
		<path class="st7" d="M379.4,190.3l-201.4,0.1c-0.6,0-2,1.2-2,1.2c0,0.6,1.3,0.9,1.9,0.9h199.3L379.4,190.3z"/>
	</g>
	<g>
		<path class="st9" d="M373.9,165.9c-0.1-0.3-0.7-0.4-1.6-0.4c-18.2,0-155.4,0.1-155.4,0.1L198.3,179l1.2,0l-1.2,0.9c0,0,3,0,8.1,0
			l-8.2,3.3L358,183c2.4-2.6,4.9-4.8,7.3-7.4c1.8-1.9,3.6-3.9,5.3-5.8c0.7-0.7,1.6-1.7,2.2-2.5C373.4,166.8,374,166.2,373.9,165.9z"
			/>
		<polygon class="st4" points="355.8,157.2 357.8,180.4 370.7,167 370.7,146.3 		"/>
		<g>
			<polyline class="st5" points="356.9,172 370.6,158.6 370.6,158.1 357,171.3 			"/>
		</g>
		<g>
			<polyline class="st5" points="356.8,168.6 370.7,155.5 370.7,155 356.9,167.9 			"/>
		</g>
		<g>
			<polyline class="st5" points="356.5,165 370.5,152.1 370.6,151.6 356.6,164.3 			"/>
		</g>
		<g>
			<polyline class="st5" points="356.3,161.5 370.7,149 370.7,148.5 356.4,160.8 			"/>
		</g>
		<g>
			<polyline class="st5" points="357,175.2 370.6,161.8 370.7,161.3 357.1,174.5 			"/>
		</g>
		<g>
			<polyline class="st5" points="357,177.9 370.6,164.6 370.7,164 357.1,177.2 			"/>
		</g>
		<path class="st9" d="M358,157.1l-158.2-0.5v0.1c-0.1,0,2.4-0.2-1,0c-3,1.9-5.5,6.7-5.5,12.7c0,7.6,4.6,13.8,4.7,13.8h8.5
			l149.7-0.6c0.9,0,2.1-0.8,2.1-1.4c2.6-2,4.4-6.8,4.4-12.3C362.9,163.2,360.6,159.1,358,157.1z"/>
		<path class="st10" d="M216.2,143.2l155.4-0.2c0,0,3.4-0.4,1.8,1.5l-15.2,12.6H198.1L216.2,143.2z"/>
		<g>
			<path class="st0" d="M210.3,183.1c0,0-8-11.7,0.6-26l2.6,0.1c0,0-9,13,0,26.1L210.3,183.1z"/>
			<path class="st0" d="M348.1,170.5c0,0.7-0.6,1.2-1.4,1.2h-119c-0.8,0-1.4-0.5-1.4-1.2c0-0.7,0.6-1.2,1.4-1.2h119
				C347.4,169.3,348.1,169.8,348.1,170.5"/>
		</g>
	</g>
	<g>
		<g>
			<path class="st11" d="M350.3,137.7L350.3,137.7L350.3,137.7c0-0.1,0-0.1,0-0.1c-0.5-0.3-9.6,0.1-11.5,0.1l-15.8-0.4H281h-35.3
				h-8.4l-14.9,10.8l1.1,0l-1.1,0.8c0,0,2.7,0,7.2,0l-5.2,3.3l113.1,0.1c0,0,12.6-13.9,12.7-14.2C350.3,138,350.3,137.8,350.3,137.7
				z"/>
			<g>
				<polygon class="st4" points="335.2,132.7 336.6,150.5 347.6,138.5 347.6,123.1 				"/>
				<g>
					<polyline class="st5" points="337.3,140.8 347.6,131.2 347.7,130.8 337.4,140.2 					"/>
				</g>
				<g>
					<polyline class="st5" points="337.1,138.2 347.6,128.8 347.7,128.4 337.2,137.7 					"/>
				</g>
				<g>
					<polyline class="st5" points="337,135.5 347.6,126.2 347.7,125.8 337.1,135 					"/>
				</g>
				<g>
					<polyline class="st5" points="337.3,143.2 347.6,133.6 347.7,133.2 337.4,142.7 					"/>
				</g>
				<g>
					<polyline class="st5" points="337.8,145.9 347.8,135.9 347.8,135.5 337.9,145.3 					"/>
				</g>
			</g>
			<path class="st11" d="M221,152.2c0.8,0,5.9,0.1,6.5-0.4l105.8,0.1c0.6,0,4.1,0.6,4.1,0.2c1.9-1.5,3.5-6.6,3.5-10.8
				c0-4.3-1.4-6.9-3.3-8.5c0-0.4-0.4-1.7-1.1-1.7h-0.7c0,0,0,0,0,0l0,0H223.7c-0.1,0.4-0.4,0.6-0.8,0.7c0,0.1-0.1,0.1-0.1,0.2
				c-0.5,0.3-1.1,0.5-1.7,0.6c-0.1,0-0.2,0-0.3,0c-1.7,1.8-2.8,5.2-2.8,9C218,147.5,221,152.2,221,152.2z"/>
			<path class="st0" d="M320.3,132.9c0,0,4.9,8.7,0.4,19.4h-1.6c0,0,3.9-9.7-0.4-19.4L320.3,132.9z"/>
			<path class="st0" d="M240.7,143.4c0,3.3-2.6,6-5.8,6c-3.2,0-5.8-2.7-5.8-6c0-3.3,2.6-6,5.8-6
				C238.1,137.4,240.7,140.1,240.7,143.4"/>
			<path class="st12" d="M235.1,121.5l113-0.2c0,0,3.3-0.4,1.9,1.4l-12.2,10.1h-117L235.1,121.5z"/>
		</g>
		<polyline class="st6" points="283.2,75.7 323.2,123.4 319.9,127.5 		"/>
		<polyline class="st3" points="283.2,75.7 319.9,127.5 246.8,127.5 		"/>
	</g>
</g>
<g>
</g>
<g>
</g>
<g>
</g>
<g>
</g>
<g>
</g>
<g>
</g>
</svg>
